<?xml version="1.0" encoding="UTF-8" standalone="no"?>
<svg
   xmlns:dc="http://purl.org/dc/elements/1.1/"
   xmlns:cc="http://creativecommons.org/ns#"
   xmlns:rdf="http://www.w3.org/1999/02/22-rdf-syntax-ns#"
   xmlns:svg="http://www.w3.org/2000/svg"
   xmlns="http://www.w3.org/2000/svg"
   xmlns:sodipodi="http://sodipodi.sourceforge.net/DTD/sodipodi-0.dtd"
   xmlns:inkscape="http://www.inkscape.org/namespaces/inkscape"
   viewBox="0 0 999.99999 1000.126"
   height="1000.126"
   width="1000"
   xml:space="preserve"
   id="svg2"
   version="1.1"
   inkscape:version="0.92.2 (5c3e80d, 2017-08-06)"
   sodipodi:docname="Bank Central Asia 'Grup BCA'.svg"><sodipodi:namedview
     pagecolor="#ffffff"
     bordercolor="#666666"
     borderopacity="1"
     objecttolerance="10"
     gridtolerance="10"
     guidetolerance="10"
     inkscape:pageopacity="0"
     inkscape:pageshadow="2"
     inkscape:window-width="1366"
     inkscape:window-height="705"
     id="namedview42"
     showgrid="false"
     inkscape:zoom="0.42048248"
     inkscape:cx="402.71509"
     inkscape:cy="504.97571"
     inkscape:window-x="-8"
     inkscape:window-y="-8"
     inkscape:window-maximized="1"
     inkscape:current-layer="svg2" /><metadata
     id="metadata8"><rdf:RDF><cc:Work
         rdf:about=""><dc:format>image/svg+xml</dc:format><dc:type
           rdf:resource="http://purl.org/dc/dcmitype/StillImage" /><dc:title></dc:title></cc:Work></rdf:RDF></metadata><defs
     id="defs6" /><path
     inkscape:connector-curvature="0"
     d="m 470.21009,759.12916 c 0,-39.86137 0.43279,-146.40728 -0.54977,-159.53471 0.85657,-158.54341 -114.41709,-270.38142 -187.24188,-261.66285 -50.39221,4.37313 -92.62462,24.92089 -115.30064,84.03234 -21.01704,55.08924 -2.22708,128.36488 67.64944,145.55922 74.71822,18.46565 118.34818,33.82947 149.92333,55.50433 38.68899,26.53531 70.27317,77.23362 71.11169,136.16454"
     style="fill:#0060af;fill-opacity:1;fill-rule:nonzero;stroke:none;stroke-width:3.1911819"
     id="path20" /><path
     inkscape:connector-curvature="0"
     d="m 500.03603,1000.1259 c -131.74642,0 -267.1445,-32.44917 -402.362242,-96.62767 l -3.317961,-1.63165 -1.586895,-3.38106 C 32.089124,770.39914 0,630.3037 0,493.23793 0,356.37899 30.772721,222.27906 91.497632,94.364755 l 1.66804,-3.39918 3.381121,-1.6951 C 221.63017,30.015275 356.18967,-5.5136719e-5 496.60988,-5.5136719e-5 627.41863,-5.5136719e-5 767.11744,33.414395 900.54098,96.799145 l 3.42621,1.52376 1.57785,3.462235 C 967.38794,232.23309 1000,372.29259 1000,507.08699 c 0,134.27097 -31.31373,268.48793 -93.22878,398.85441 l -1.63194,3.42637 -3.44421,1.58729 c -123.17197,58.308 -262.07735,89.17084 -401.65904,89.17084 M 110.18846,885.9346 c 131.35874,61.78862 262.36585,92.99455 389.84757,92.99455 135.17272,0 269.60605,-29.54715 389.27061,-85.5559 59.44457,-126.32804 89.57709,-256.34318 89.57709,-386.28626 0,-130.46659 -31.44888,-266.17998 -90.93857,-392.78715 C 758.46177,53.430605 623.23505,21.152215 496.60988,21.152215 c -135.94805,0 -266.25189,28.83418 -387.55747,85.718135 -58.227416,123.98323 -87.864014,253.89936 -87.864014,386.36758 0,132.7197 30.799701,268.4879 89.000064,392.69667"
     style="fill:#0060af;fill-opacity:1;fill-rule:nonzero;stroke:none;stroke-width:3.1911819"
     id="path22" /><path
     inkscape:connector-curvature="0"
     d="m 438.98655,759.19203 c 0.24349,-51.09529 -28.27518,-96.27605 -65.54863,-120.55711 -33.06282,-21.45878 -77.45016,-35.56062 -149.05775,-53.71928 -22.13511,-5.66201 -45.28902,-18.2398 -52.45699,-34.27102 -18.96132,19.10535 -22.40553,62.05907 -19.06952,87.16059 3.87707,29.05061 37.82351,76.92727 88.93698,78.80305 31.21449,1.25286 70.67893,-6.71776 89.60419,-10.73833 32.64812,-7.05123 84.30257,13.39786 92.52545,53.25923"
     style="fill:#0060af;fill-opacity:1;fill-rule:nonzero;stroke:none;stroke-width:3.1911819"
     id="path24" /><path
     inkscape:connector-curvature="0"
     d="m 496.60988,90.839325 c -86.66487,0 -161.52739,57.154445 -161.2569,156.054285 0.27061,83.16675 67.15357,127.68932 91.01975,159.49012 36.06524,47.92127 55.5856,104.64294 57.61427,191.43428 1.57785,69.07419 1.4967,137.28219 1.84833,161.45507 H 504.968 c -0.33338,-25.29075 -1.19921,-97.70058 -0.20775,-163.59195 1.29834,-86.81837 21.52197,-141.37613 57.60527,-189.2974 24.07358,-31.8008 90.90251,-76.32337 91.04682,-159.49012 C 653.73691,147.99377 578.91949,90.839325 492.32671,90.839325"
     style="fill:#0060af;fill-opacity:1;fill-rule:nonzero;stroke:none;stroke-width:3.1911819"
     id="path26" /><path
     inkscape:connector-curvature="0"
     d="m 518.60966,759.12916 c 0,-39.86137 -0.45104,-146.40728 0.51394,-159.53471 -0.84751,-158.54341 114.354,-270.38142 187.2419,-261.66285 50.39221,4.37313 92.57957,24.92089 115.31875,84.03234 20.999,55.08924 2.10076,128.36488 -67.69454,145.55922 -74.75433,18.46565 -118.33021,33.82947 -149.98647,55.50433 -38.64397,26.53531 -68.01915,77.23362 -68.92076,136.16454"
     style="fill:#0060af;fill-opacity:1;fill-rule:nonzero;stroke:none;stroke-width:3.1911819"
     id="path28" /><path
     inkscape:connector-curvature="0"
     d="m 549.81518,759.19203 c -0.27061,-51.09529 28.23912,-96.27605 65.40439,-120.55711 33.19806,-21.45878 77.63951,-35.56062 149.18399,-53.71928 22.18015,-5.66201 45.307,-18.2398 52.34872,-34.27102 19.05155,19.10535 22.48676,62.05907 19.15067,87.16059 -3.95815,29.05061 -37.81446,76.92727 -88.83778,78.80305 -31.20549,1.25286 -70.87727,-6.71776 -89.72139,-10.73833 -32.52185,-7.05123 -84.3206,13.39786 -92.57957,53.25923"
     style="fill:#0060af;fill-opacity:1;fill-rule:nonzero;stroke:none;stroke-width:3.1911819"
     id="path30" /><path
     inkscape:connector-curvature="0"
     d="m 576.54854,924.14549 -11.09006,-80.92103 26.76945,-4.05727 c 6.51882,-0.89289 14.45315,0.24253 17.62688,4.32756 3.50736,4.26438 4.58034,7.79032 5.25655,13.37999 1.00981,6.91561 -0.99182,14.91335 -8.78191,18.8985 v 0.24253 c 8.70076,0 13.95727,6.24833 15.481,16.79742 0.22529,2.22681 0.8836,7.6097 0.22529,12.09969 -1.76724,10.6844 -8.14172,14.1197 -18.89821,15.62562 z m 17.23018,-14.48892 c 3.17373,-0.45315 6.39254,-0.62196 8.90812,-2.22744 3.85,-2.51561 3.49837,-7.89818 2.9664,-11.89194 -1.34346,-8.78214 -3.63358,-12.11788 -12.94746,-10.73865 l -5.85157,0.90151 3.70569,24.40712 z m -5.60812,-37.39108 c 3.54343,-0.57473 8.34906,-1.00075 10.3507,-4.36362 1.04591,-2.245 2.38936,-4.03046 1.50575,-9.02562 -1.09096,-5.92379 -3.05654,-9.59301 -10.57615,-8.16879 l -7.00569,1.12745 2.759,20.73757"
     style="fill:#0060af;fill-opacity:1;fill-rule:nonzero;stroke:none;stroke-width:3.1911819"
     id="path32" /><path
     inkscape:connector-curvature="0"
     d="m 692.50744,875.4755 c 0.20743,1.50592 0.45104,3.18289 0.54097,4.68817 2.16391,14.76017 -0.54097,26.97729 -17.131,30.34016 -24.52439,4.72486 -29.22194,-10.51303 -33.54069,-31.84544 l -2.29915,-11.54091 c -3.38112,-20.41336 -4.83279,-35.86697 19.07848,-40.62758 13.47939,-2.46136 22.38755,2.90302 26.09327,16.31939 0.57681,2.00151 1.29834,3.98546 1.56882,5.99591 l -14.66958,3.02971 c -1.69502,-5.04016 -3.94008,-14.04727 -10.54002,-13.29 -11.84746,1.42423 -7.93443,16.16589 -6.71722,22.32423 l 4.40897,22.15319 c 1.32539,6.69925 3.95822,17.40119 14.20976,15.3365 8.32203,-1.66803 4.69748,-14.63348 3.95815,-19.94361"
     style="fill:#0060af;fill-opacity:1;fill-rule:nonzero;stroke:none;stroke-width:3.1911819"
     id="path34" /><path
     inkscape:connector-curvature="0"
     d="m 716.04902,899.96367 -5.07615,-83.74363 19.70963,-6.01378 41.32182,72.83426 -15.51713,4.64285 -9.79169,-18.51013 -17.23021,5.17514 2.22709,21.04393 z m 11.97369,-39.13984 12.45152,-3.60636 -16.53591,-33.88365"
     style="fill:#0060af;fill-opacity:1;fill-rule:nonzero;stroke:none;stroke-width:3.1911819"
     id="path36" /><path
     inkscape:connector-curvature="0"
     d="m 229.23992,836.65158 c 6.16716,-19.74575 11.69421,-34.28063 35.22674,-27.82455 12.59582,3.51636 20.40398,9.06998 20.03428,23.70346 -0.0609,3.25533 -1.13605,6.57288 -1.83933,9.79182 l -14.65154,-4.04801 c 1.92048,-8.0788 3.13768,-14.48924 -6.81634,-17.55469 -11.5048,-3.15576 -14.30883,10.79257 -15.89572,16.81497 l -5.95977,21.95502 c -1.89343,6.51894 -4.16554,17.29301 5.95977,20.0703 8.36712,2.25393 13.44333,-5.95954 16.47281,-17.95168 l -10.25155,-2.71378 3.54341,-12.7041 24.10063,7.75426 -11.44172,42.31347 -11.09007,-3.01151 2.4975,-8.94425 h -0.3158 c -5.10319,7.31259 -11.33345,8.0788 -16.78834,7.03273 -24.10062,-6.51895 -21.58507,-22.26998 -15.83264,-43.31423"
     style="fill:#0060af;fill-opacity:1;fill-rule:nonzero;stroke:none;stroke-width:3.1911819"
     id="path38" /><path
     inkscape:connector-curvature="0"
     d="m 318.94326,872.39186 -7.25812,34.42456 -16.33756,-3.53455 17.41053,-80.38077 27.85135,6.29365 c 16.30155,3.51636 21.22446,10.77439 18.91631,25.71486 -1.31643,8.57439 -5.54503,17.81573 -15.86876,17.06772 l -0.10818,-0.14041 c 8.72782,3.05651 9.46712,7.45619 7.94339,15.06652 -0.65796,3.23618 -5.19339,22.88333 -2.06479,26.05664 l 0.10818,2.40743 -16.9056,-4.40894 c -0.70328,-5.44543 1.68609,-15.23725 2.63279,-20.65652 0.95572,-4.79634 2.47945,-11.55878 -2.38937,-14.10119 -3.81388,-2.02896 -5.22942,-1.92939 -9.53921,-2.92153 z m 2.78605,-12.45135 10.99991,2.9662 c 6.68109,0.9647 10.39582,-2.49742 11.71221,-10.56696 1.19015,-7.40258 -0.35163,-10.29667 -6.34751,-11.73046 l -11.79333,-2.38892"
     style="fill:#0060af;fill-opacity:1;fill-rule:nonzero;stroke:none;stroke-width:3.1911819"
     id="path40" /><path
     inkscape:connector-curvature="0"
     d="m 423.73091,840.86171 16.15731,1.87578 -6.96064,56.5053 c -3.38112,17.91529 -10.30567,25.7506 -30.0153,23.29786 -20.05234,-2.5338 -24.81294,-11.66696 -23.59576,-29.72682 l 7.0057,-56.45998 16.28348,1.86652 -6.98763,55.19755 c -0.73934,5.99591 -2.12788,14.87665 8.53848,15.94985 9.45806,0.72153 11.604,-5.545 12.66791,-13.33499"
     style="fill:#0060af;fill-opacity:1;fill-rule:nonzero;stroke:none;stroke-width:3.1911819"
     id="path42" /><path
     inkscape:connector-curvature="0"
     d="m 457.70443,925.63322 4.85981,-80.80423 31.04322,1.3438 c 14.66951,0.72089 18.51048,12.70346 18.05063,24.13651 -0.42398,6.95135 -2.5967,14.71454 -8.65567,18.9253 -4.968,3.57923 -11.35157,4.42649 -17.27527,4.13865 l -10.11633,-0.56133 -2.01961,33.86514 z m 18.36624,-45.14469 8.22288,0.45985 c 6.68109,0.24253 11.10812,-2.39817 11.68515,-12.20787 0.32457,-9.42196 -3.23682,-11.01787 -11.89249,-11.39667 l -6.51878,-0.22338"
     style="fill:#0060af;fill-opacity:1;fill-rule:nonzero;stroke:none;stroke-width:3.1911819"
     id="path44" /></svg>